<?xml version="1.0" standalone="no"?>
<!DOCTYPE svg PUBLIC "-//W3C//DTD SVG 20010904//EN"
 "http://www.w3.org/TR/2001/REC-SVG-20010904/DTD/svg10.dtd">
<svg version="1.0" xmlns="http://www.w3.org/2000/svg"
 width="700.000000pt" height="700.000000pt" viewBox="0 0 700.000000 700.000000"
 preserveAspectRatio="xMidYMid meet">
<metadata>
Created by potrace 1.11, written by Peter Selinger 2001-2013
</metadata>
<g transform="translate(0.000000,700.000000) scale(0.100000,-0.100000)"
fill="#000000" stroke="none">
<path d="M3484 6501 c-7 -7 -379 -224 -550 -321 -27 -16 -463 -268 -974 -563
-85 -49 -171 -98 -190 -109 -19 -11 -105 -61 -190 -110 -85 -50 -190 -110
-232 -135 -43 -25 -78 -50 -79 -56 0 -7 -1 -435 -1 -952 -1 -837 4 -1156 16
-1220 2 -11 7 -57 11 -103 l7 -83 232 -173 c316 -235 344 -256 350 -256 4 0
-9 33 -49 125 -30 68 -365 886 -365 890 0 3 -9 24 -19 48 -19 39 -77 179 -122
292 l-20 50 62 -60 c34 -33 74 -71 88 -85 15 -14 114 -108 220 -210 107 -102
215 -205 241 -230 95 -91 394 -376 414 -395 12 -11 43 -41 70 -65 44 -40 49
-42 43 -20 -9 31 -47 192 -58 245 -5 22 -10 49 -13 60 -27 114 -198 850 -211
909 -2 12 -14 62 -26 111 -11 50 -22 97 -24 105 -2 8 -13 53 -24 100 -11 47
-22 97 -25 110 -5 28 -23 107 -67 289 -16 68 -28 125 -26 127 3 3 175 -279
247 -405 32 -55 181 -301 183 -301 1 0 2 114 2 252 l0 253 210 121 c116 66
287 165 380 219 94 54 187 108 207 119 21 12 96 55 167 97 l130 76 543 -314
c299 -173 545 -317 547 -319 3 -2 5 -117 5 -254 0 -138 1 -250 2 -250 2 0 99
160 215 355 117 195 214 354 215 352 2 -1 -6 -41 -17 -87 -11 -47 -22 -96 -25
-110 -3 -13 -14 -60 -24 -105 -10 -45 -21 -92 -24 -105 -3 -14 -12 -54 -21
-90 -36 -148 -45 -186 -49 -210 -2 -14 -18 -84 -35 -155 -16 -72 -49 -209 -72
-305 -22 -96 -43 -183 -44 -192 -2 -10 -32 -138 -66 -286 -88 -383 -98 -426
-96 -429 3 -2 67 58 322 303 94 89 195 186 225 215 30 29 133 127 229 218 95
91 192 184 215 206 24 22 66 63 95 90 l53 50 -17 -40 c-9 -22 -41 -101 -72
-175 -30 -74 -61 -148 -68 -165 -8 -16 -34 -82 -60 -145 -25 -63 -52 -129 -60
-147 -8 -17 -15 -34 -15 -37 0 -3 -9 -25 -19 -49 -18 -39 -210 -504 -252 -609
l-18 -47 147 110 c81 61 154 115 162 122 8 7 75 56 148 111 119 89 132 101
133 130 0 17 2 40 3 51 5 31 18 173 22 240 9 127 7 2036 -2 2044 -5 5 -155 94
-334 197 -179 103 -399 230 -490 282 -91 52 -421 243 -735 425 -696 403 -670
388 -681 378z"/>
<path d="M3489 4763 c0 -16 -2 -37 -4 -48 -2 -11 -7 -40 -10 -65 -3 -25 -15
-112 -26 -195 -12 -82 -22 -161 -24 -175 -1 -14 -6 -47 -10 -75 -4 -27 -8 -61
-10 -75 -5 -38 -26 -182 -30 -210 -2 -14 -9 -63 -15 -110 -6 -47 -13 -95 -15
-106 -2 -12 -7 -48 -10 -80 -4 -33 -9 -68 -11 -79 -2 -11 -7 -40 -10 -65 -3
-25 -7 -56 -9 -70 -2 -14 -9 -63 -15 -110 -6 -47 -13 -98 -16 -115 -3 -16 -7
-43 -9 -60 -3 -33 -35 -267 -40 -293 -2 -10 -9 -63 -16 -119 -13 -103 -21
-123 -35 -80 -4 12 -10 24 -13 27 -5 4 -706 1169 -737 1225 -6 11 -37 63 -69
115 -32 52 -78 130 -102 173 -25 43 -47 76 -49 74 -3 -3 7 -56 21 -118 15 -63
29 -123 31 -134 2 -11 17 -78 34 -150 27 -118 66 -287 75 -325 5 -24 73 -318
117 -505 39 -171 44 -193 52 -230 2 -11 13 -58 25 -105 24 -101 50 -224 48
-227 -1 -1 -59 53 -129 120 -69 67 -209 201 -310 297 -100 96 -232 223 -293
281 -60 58 -153 146 -205 196 -52 50 -96 90 -98 89 -1 -2 117 -292 263 -646
146 -354 264 -644 262 -646 -2 -2 -89 59 -132 93 -7 6 -390 291 -490 365 -18
14 -120 91 -134 102 -12 9 -13 5 -7 -29 5 -22 10 -51 12 -65 40 -223 244 -682
430 -965 128 -194 251 -332 468 -520 30 -26 169 -127 236 -172 236 -156 542
-300 875 -412 100 -34 147 -45 165 -40 146 43 369 123 458 164 29 14 55 25 58
25 14 0 290 144 374 195 340 206 578 423 784 715 175 247 414 764 453 980 2
14 10 49 18 78 7 28 11 52 9 52 -2 0 -102 -73 -221 -162 -120 -89 -288 -213
-373 -276 -85 -63 -163 -122 -173 -131 -16 -13 -16 -10 3 34 12 28 98 237 192
465 94 228 176 429 184 445 34 77 144 349 141 351 -1 1 -46 -39 -99 -89 -125
-119 -442 -423 -583 -559 -60 -58 -128 -123 -150 -143 -22 -21 -77 -73 -122
-117 -46 -45 -83 -78 -83 -74 0 8 70 316 161 711 33 143 69 298 80 345 11 47
24 103 29 125 6 22 35 150 66 285 31 135 60 261 65 280 17 68 8 62 -56 -45
-36 -60 -65 -111 -65 -114 0 -2 -6 -12 -14 -20 -7 -9 -25 -36 -38 -61 -14 -25
-71 -121 -128 -215 -56 -93 -112 -186 -124 -206 -11 -20 -113 -190 -226 -377
-113 -188 -210 -349 -215 -359 -59 -103 -108 -184 -116 -189 -5 -3 -9 5 -10
18 0 13 -2 32 -4 43 -2 11 -7 40 -10 65 -3 25 -7 56 -10 70 -2 14 -7 45 -10
70 -7 66 -14 120 -20 160 -3 19 -14 98 -25 175 -11 77 -26 190 -34 250 -9 61
-18 127 -21 149 -6 52 -14 113 -20 156 -3 19 -8 53 -11 75 -2 22 -9 67 -14
100 -5 33 -12 83 -15 110 -5 43 -22 168 -41 295 -3 19 -7 55 -10 80 -3 25 -7
56 -9 70 -2 14 -9 61 -15 105 -6 44 -12 89 -15 100 -2 11 -4 35 -4 53 -1 39
-21 43 -22 5z"/>
</g>
</svg>
